<svg xmlns="http://www.w3.org/2000/svg" xmlns:xlink="http://www.w3.org/1999/xlink" width="1600" zoomAndPan="magnify" viewBox="0 0 1200 449.999984" height="600" preserveAspectRatio="xMidYMid meet" version="1.0"><rect x="-120" width="1440" fill="#ffffff" y="-44.999998" height="539.99998" fill-opacity="1"/><rect x="-120" width="1440" fill="#ffffff" y="-44.999998" height="539.99998" fill-opacity="1"/><rect x="-120" width="1440" fill="#ffffff" y="-44.999998" height="539.99998" fill-opacity="1"/><path fill="#b88917" d="M -30.542969 104.054688 L 1209.21875 104.054688 L 1209.21875 259.382812 L -30.542969 259.382812 L -30.542969 104.054688 " fill-opacity="1" fill-rule="nonzero"/><path fill="#ffffff" d="M 1205.5 255.675781 L 1212.9375 255.675781 L 1212.9375 263.09375 L 1205.5 263.09375 L 1205.5 255.675781 M -34.261719 107.765625 L -26.824219 107.765625 L -26.824219 255.675781 L -34.261719 255.675781 L -34.261719 107.765625 M -34.261719 255.675781 L -26.824219 255.675781 L -26.824219 263.09375 L -34.261719 263.09375 L -34.261719 255.675781 M 1205.5 107.765625 L 1212.9375 107.765625 L 1212.9375 255.675781 L 1205.5 255.675781 L 1205.5 107.765625 M -26.824219 255.675781 L 1205.5 255.675781 L 1205.5 263.09375 L -26.824219 263.09375 L -26.824219 255.675781 M 1205.5 100.34375 L 1212.9375 100.34375 L 1212.9375 107.765625 L 1205.5 107.765625 L 1205.5 100.34375 M -34.261719 100.34375 L -26.824219 100.34375 L -26.824219 107.765625 L -34.261719 107.765625 L -34.261719 100.34375 M -26.824219 100.34375 L 1205.5 100.34375 L 1205.5 107.765625 L -26.824219 107.765625 L -26.824219 100.34375 " fill-opacity="1" fill-rule="nonzero"/><path fill="#b88917" d="M 778.867188 117.527344 C 788.101562 117.527344 797.332031 119.457031 806.566406 123.308594 C 842.726562 138.714844 859.652344 180.320312 844.261719 216.53125 C 803.871094 312.839844 710.398438 374.863281 606.148438 374.863281 C 501.902344 374.863281 408.425781 312.839844 367.652344 216.53125 C 352.261719 180.320312 369.1875 138.332031 405.347656 123.308594 C 441.507812 107.898438 483.4375 124.847656 498.441406 161.058594 C 516.90625 204.207031 559.21875 232.328125 606.148438 232.328125 C 653.078125 232.328125 695.007812 204.207031 713.472656 161.058594 C 724.628906 134.09375 751.171875 117.527344 778.867188 117.527344 Z M 778.867188 117.527344 " fill-opacity="1" fill-rule="nonzero"/></svg>